<?xml version="1.0" encoding="UTF-8"?>
<svg version="1.1" xmlns="http://www.w3.org/2000/svg" width="512" height="512">
<path d="M0 0 C25.63753379 -2.56894066 43.68303442 2.52282732 66.56591797 13.84472656 C72.74156706 16.88131106 79.06550269 19.5623363 85.39904785 22.24908447 C92.3650755 25.21036838 99.31400593 28.21449647 106.19921875 31.359375 C106.94453857 31.69702881 107.6898584 32.03468262 108.45776367 32.38256836 C110.29903034 33.22098853 112.13428191 34.07258832 113.96875 34.92578125 C120.52968487 37.25085482 125.07927943 35.45234248 131.078125 32.6953125 C131.86515305 32.34418396 132.65218109 31.99305542 133.46305847 31.63128662 C135.16811797 30.86963631 136.87111085 30.10334626 138.57223511 29.33294678 C141.29113397 28.10644436 144.01898155 26.90230855 146.75024414 25.70361328 C155.28695805 21.94775308 163.78242523 18.13364262 172.18322754 14.08172607 C195.39270544 2.9222834 214.12435237 -3.01119034 240 0 C240 1.98 240 3.96 240 6 C224.94002533 12.74948135 209.83873754 19.3957468 194.6875 25.9375 C193.91068878 26.27298859 193.13387756 26.60847717 192.33352661 26.95413208 C185.36982714 29.96113695 178.40459117 32.96457185 171.43798828 35.96484375 C167.8716324 37.500813 164.3061968 39.03890013 160.74136353 40.57839966 C158.78628195 41.42184749 156.83005057 42.26258756 154.8737793 43.10327148 C153.71402588 43.60415283 152.55427246 44.10503418 151.359375 44.62109375 C150.34327148 45.0586499 149.32716797 45.49620605 148.28027344 45.94702148 C146.08201275 46.80281371 146.08201275 46.80281371 145 48 C159.29540727 54.20466996 173.59110829 60.40866219 187.88725281 66.6116333 C193.78931993 69.17257055 199.69115191 71.73404596 205.59228516 74.2971344 C208.31454371 75.47939684 211.03708122 76.66101572 213.75970459 77.84243774 C215.4951741 78.59577499 217.23026088 79.34999377 218.96533203 80.10424805 C225.95230256 83.13509859 232.96813816 86.07005757 240 89 C240 98.24 240 107.48 240 117 C219.66199485 126.0361517 199.26918849 134.93118161 178.79541016 143.65576172 C170.44747044 147.21569003 162.11300181 150.80324861 153.8125 154.47265625 C153.03938477 154.81284286 152.26626953 155.15302948 151.46972656 155.50352478 C147.98975845 156.8658017 147.98975845 156.8658017 145 159 C145.96373535 159.41660889 146.9274707 159.83321777 147.92041016 160.26245117 C151.64589408 161.8729706 155.37131604 163.48363332 159.09671021 165.09436035 C160.78491434 165.82427781 162.47312644 166.55417684 164.16134644 167.28405762 C172.82670026 171.03053332 181.49179812 174.77757632 190.15234375 178.53515625 C190.77889862 178.8069873 191.40545349 179.07881836 192.05099487 179.35888672 C192.66677399 179.62604492 193.2825531 179.89320313 193.91699219 180.16845703 C209.25876361 186.82422955 224.62285224 193.42643963 240 200 C240 201.98 240 203.96 240 206 C213.87358549 208.912616 195.39383005 203.42656866 172.05908203 191.92280579 C162.71086153 187.31551956 153.1899861 183.13600591 143.61550903 179.02362061 C140.86119363 177.83353948 138.11863958 176.61917473 135.37670898 175.40087891 C133.69555653 174.66866166 132.01401739 173.93733138 130.33203125 173.20703125 C129.57453583 172.86524338 128.81704041 172.52345551 128.03659058 172.17131042 C122.22923724 169.69203343 118.82228451 169.95362059 112.8359375 172.1730957 C111.12277344 172.91692505 111.12277344 172.91692505 109.375 173.67578125 C108.73240234 173.95330231 108.08980469 174.23082336 107.42773438 174.51675415 C106.02452782 175.12365346 104.62255352 175.73340801 103.22167969 176.34567261 C100.94721547 177.3354707 98.66594854 178.3079754 96.3828125 179.27758789 C88.35915547 182.70255384 80.41826792 186.24417739 72.56771851 190.05110168 C47.8082314 202.03628428 27.70676123 209.54167056 0 206 C0 204.02 0 202.04 0 200 C1.56548549 199.3230333 3.13097105 198.64606678 4.69645691 197.96910095 C6.12338885 197.35204846 7.55031955 196.73499309 8.97724915 196.11793518 C13.05511669 194.35451765 17.13300766 192.59115433 21.2109375 190.82788086 C29.79343192 187.11679229 38.37561722 183.40499247 46.95703125 179.69140625 C62.95968768 172.76690851 78.96438413 165.84794984 95 159 C83.25220486 152.72862064 71.00019278 147.64204673 58.75074768 142.44680786 C51.71367254 139.45976574 44.70007962 136.41900122 37.6875 133.375 C36.43474332 132.83160072 35.18197646 132.28822491 33.92919922 131.74487305 C22.61629898 126.83720444 11.30771898 121.91959202 0 117 C0 107.76 0 98.52 0 89 C2.86751953 87.77603516 2.86751953 87.77603516 5.79296875 86.52734375 C27.33226523 77.32383711 48.82594811 68.01657073 70.30932617 58.68334961 C71.42858994 58.19710617 72.5478537 57.71086273 73.70103455 57.20988464 C75.80762573 56.2945861 77.91412764 55.37908206 80.02052307 54.46333313 C85.00813733 52.29572018 89.99891836 50.13636752 95 48 C84.30292697 42.37802939 73.22664035 37.68968976 62.125 32.9375 C60.16349044 32.09470394 58.20214749 31.25152002 56.2409668 30.40795898 C52.33001287 28.72600853 48.41843231 27.04552961 44.50634766 25.36621094 C37.56284009 22.38420723 30.6270774 19.3844361 23.69403076 16.37820435 C21.87132985 15.58800464 20.04822047 14.79874731 18.22509766 14.00952148 C12.13584459 11.37108321 6.05745293 8.71070775 0 6 C0 4.02 0 2.04 0 0 Z M110.1328125 61.26171875 C109.35444534 61.6036879 108.57607819 61.94565704 107.77412415 62.29798889 C105.22142582 63.42117615 102.67330785 64.55439146 100.125 65.6875 C98.34938955 66.47052036 96.57342582 67.25274005 94.79711914 68.03417969 C91.21423557 69.6109341 87.63274464 71.19078686 84.05224609 72.77294922 C77.19545033 75.79959622 70.31750871 78.77660619 63.4375 81.75 C62.25647705 82.26248291 61.0754541 82.77496582 59.85864258 83.30297852 C54.15400794 85.77780907 48.44483675 88.24046629 42.72319031 90.67565918 C39.92554396 91.86720602 37.13017384 93.06403902 34.33499146 94.26135254 C33.00024878 94.83131644 31.66439016 95.39867494 30.32736206 95.96325684 C28.48241234 96.74244812 26.64149547 97.53116758 24.80078125 98.3203125 C23.75059814 98.76648926 22.70041504 99.21266602 21.6184082 99.67236328 C19.21012961 100.89345596 17.73677984 101.96536931 16 104 C39.66848939 114.32634188 63.34634324 124.63025038 87.0458374 134.88525391 C91.27074646 136.71342745 95.49546789 138.54203325 99.71994019 140.37121582 C101.70836307 141.23197596 103.69707038 142.09207649 105.68579102 142.95214844 C106.87744873 143.4680957 108.06910645 143.98404297 109.296875 144.515625 C110.88000488 145.20060059 110.88000488 145.20060059 112.49511719 145.89941406 C114.01200743 146.56589956 115.51806642 147.25903321 117 148 C121.95869693 148.42609256 125.2273512 147.3263056 129.72265625 145.28125 C130.36784714 144.99196625 131.01303802 144.7026825 131.67778015 144.40463257 C133.07615596 143.77621641 134.47227414 143.14275724 135.86633301 142.50482178 C138.8803863 141.12578895 141.90533185 139.77143762 144.92971802 138.41525269 C146.52376833 137.70014072 148.11724544 136.98374978 149.71017456 136.2661438 C158.35051185 132.37710728 167.04755731 128.62245023 175.75 124.875 C177.29205836 124.2097888 178.83405079 123.54442473 180.37597656 122.87890625 C182.66238495 121.89207954 184.94883177 120.90534328 187.23550415 119.91912842 C195.26538185 116.45580386 203.28918515 112.9784949 211.3125 109.5 C212.61360186 108.93602383 213.91470846 108.37205859 215.21582031 107.80810547 C218.14393998 106.53887478 221.07200295 105.26951354 224 104 C224 103.34 224 102.68 224 102 C223.30890137 101.70456299 222.61780273 101.40912598 221.90576172 101.10473633 C204.53352238 93.67557442 187.18463158 86.19417557 169.85253906 78.671875 C163.87844051 76.07911852 157.90343958 73.48844406 151.92816162 70.89840698 C150.07585122 70.09538343 148.22371293 69.29196288 146.37158203 68.48852539 C144.07166421 67.49144469 141.77074582 66.49666825 139.46875 65.50439453 C137.02502496 64.44455263 134.58872144 63.37350481 132.15625 62.28857422 C130.89583653 61.73274014 129.63541996 61.17691311 128.375 60.62109375 C127.24835938 60.11892334 126.12171875 59.61675293 124.9609375 59.09936523 C119.22683401 56.97035237 115.37231371 58.91213021 110.1328125 61.26171875 Z " fill="#4f39f6" transform="translate(136,187)"/>
<path d="M0 0 C3.36167542 2.67396817 4.84669899 4.15180479 5.62099248 8.43587333 C5.64458662 9.78079826 5.64079746 11.1263758 5.61523914 12.47126484 C5.62100836 13.21823011 5.62677759 13.96519538 5.63272163 14.73479596 C5.64599213 17.24622528 5.62350004 19.75606248 5.60127258 22.26741028 C5.60345238 24.08251674 5.60782922 25.89762167 5.61421841 27.71271819 C5.62541931 32.70691312 5.60537041 37.70057376 5.58032811 42.6947006 C5.55877189 48.07775778 5.56604011 53.46078388 5.56983948 58.84387207 C5.57246352 68.17254103 5.55675215 77.50103538 5.52865028 86.82966042 C5.48804601 100.31732091 5.4749962 113.80489681 5.46871033 127.2926118 C5.45776233 149.17453323 5.42447437 171.05636156 5.37719727 192.93823242 C5.33131478 214.19669122 5.29591644 235.45512474 5.2746582 256.71362305 C5.27334459 258.02360049 5.27203097 259.33357793 5.27067754 260.68325166 C5.26415244 267.25490561 5.25783388 273.82655973 5.25161803 280.39821398 C5.19976927 334.93220762 5.11131898 389.46609783 5 444 C-0.94 444 -6.88 444 -13 444 C-13.06839222 388.28650689 -13.12150547 332.5730191 -13.15319599 276.85949226 C-13.15694825 270.28661782 -13.1608312 263.71374346 -13.16479492 257.14086914 C-13.16558185 255.83229142 -13.16636878 254.5237137 -13.16717956 253.17548212 C-13.18024449 231.96864025 -13.20390431 210.7618227 -13.23145839 189.55499528 C-13.25948236 167.80562398 -13.27616988 146.05626545 -13.28226548 124.30687684 C-13.28638817 110.87914768 -13.29942378 97.45148725 -13.3237494 84.02377924 C-13.33956947 74.82422458 -13.34440884 65.62470561 -13.34050413 56.42513833 C-13.33857677 51.11219763 -13.34159524 45.79937729 -13.35761642 40.48645782 C-13.37216576 35.6263046 -13.37298479 30.76635322 -13.36269668 25.90619089 C-13.36142428 24.14433296 -13.36527181 22.38246266 -13.37464955 20.62062923 C-13.38662799 18.23205266 -13.38023748 15.84421192 -13.36914349 13.45564747 C-13.37702453 12.76607923 -13.38490557 12.076511 -13.39302543 11.36604676 C-13.34790993 7.08947885 -12.6041918 4.40823288 -10 1 C-6.84203893 -0.57898053 -3.39329364 -0.81928171 0 0 Z " fill="#4f39f6" transform="translate(405,17)"/>
<path d="M0 0 C3.81624697 0.48460279 5.36934044 0.72638767 7.9375 3.5 C9.09816103 6.98198308 9.07423709 10.08886034 9.06054783 13.70955181 C9.06170167 14.45252102 9.06285552 15.19549022 9.06404433 15.96097365 C9.06670789 18.47031701 9.06219094 20.97959723 9.05775452 23.48893738 C9.05819027 25.29818926 9.05906526 27.10744108 9.06034368 28.91669255 C9.0625878 33.90381184 9.05856847 38.8909098 9.05356562 43.87802637 C9.04926013 49.25021196 9.05070762 54.62239629 9.0514679 59.99458313 C9.05199307 69.30739313 9.04884696 78.62019614 9.04323006 87.93300438 C9.03511415 101.39787815 9.03249974 114.86274853 9.03124207 128.32762448 C9.02905169 150.17178738 9.02239199 172.01594655 9.01293945 193.86010742 C9.00376497 215.08374004 8.99668431 236.30737166 8.99243164 257.53100586 C8.99203756 259.4922797 8.99203756 259.4922797 8.99163551 261.49317523 C8.9903305 268.05238653 8.98906679 274.61159784 8.98782361 281.17080915 C8.97745144 335.61387537 8.95975934 390.05693744 8.9375 444.5 C2.9975 444.5 -2.9425 444.5 -9.0625 444.5 C-9.17648687 388.65912958 -9.26500901 332.81827389 -9.31782665 276.97730999 C-9.32408041 270.38941415 -9.330552 263.80151854 -9.3371582 257.21362305 C-9.33846976 255.90205471 -9.33978131 254.59048638 -9.3411326 253.23917355 C-9.36290754 231.98380985 -9.40234057 210.72851355 -9.44826398 189.47318987 C-9.49497051 167.67410071 -9.52278311 145.87504693 -9.53294247 124.07590979 C-9.53981367 110.61741809 -9.5615397 97.15911688 -9.60208233 83.70068379 C-9.62844905 74.48009073 -9.63651478 65.25959659 -9.63000689 56.03896854 C-9.62679454 50.71379263 -9.63182537 45.3889503 -9.65852737 40.06383324 C-9.68277658 35.19246367 -9.68414193 30.32165347 -9.66699447 25.45025869 C-9.66487376 23.68435594 -9.67128684 21.91841892 -9.68691591 20.15258405 C-9.70688322 17.75812023 -9.69623264 15.36569508 -9.67773914 12.97126484 C-9.69744175 11.93450597 -9.69744175 11.93450597 -9.71754238 10.87680247 C-9.65044285 7.05196201 -9.11941387 5.56926657 -6.65515107 2.57015532 C-4.08666824 0.51929762 -3.1971243 -0.15254669 0 0 Z " fill="#4f39f6" transform="translate(111.0625,16.5)"/>
<path d="M0 0 C79.2 0 158.4 0 240 0 C240 5.94 240 11.88 240 18 C160.8 18 81.6 18 0 18 C0 12.06 0 6.12 0 0 Z " fill="#4f39f6" transform="translate(136,409)"/>
<path d="M0 0 C79.2 0 158.4 0 240 0 C240 5.94 240 11.88 240 18 C160.8 18 81.6 18 0 18 C0 12.06 0 6.12 0 0 Z " fill="#4f39f6" transform="translate(136,153)"/>
<path d="M0 0 C79.2 0 158.4 0 240 0 C240 5.94 240 11.88 240 18 C160.8 18 81.6 18 0 18 C0 12.06 0 6.12 0 0 Z " fill="#4f39f6" transform="translate(136,51)"/>
<path d="M0 0 C17.16 0 34.32 0 52 0 C52 5.94 52 11.88 52 18 C34.84 18 17.68 18 0 18 C0 12.06 0 6.12 0 0 Z " fill="#4f39f6" transform="translate(375,477)"/>
<path d="M0 0 C17.16 0 34.32 0 52 0 C52 5.94 52 11.88 52 18 C34.84 18 17.68 18 0 18 C0 12.06 0 6.12 0 0 Z " fill="#4f39f6" transform="translate(85,477)"/>
</svg>
